<svg xmlns="http://www.w3.org/2000/svg" viewBox="0 0 300 207.07"><defs><style>.cls-1{fill:#cb7336;}.cls-2{fill:#100f0f;}.cls-3{fill:#3d90cd;}.cls-4{fill:#343029;}.cls-5{fill:#0c0b0b;}.cls-6{fill:#fffefe;}</style></defs><title>Asset 1</title><g id="Layer_2" data-name="Layer 2"><g id="Layer_2-2" data-name="Layer 2"><path class="cls-1" d="M0,102.86c3.69-1.23,7.06-3.18,10.56-4.82,7-3.26,13.92-6.62,20.91-9.87A2.28,2.28,0,0,0,33,85.57c-.62-8.28-2.87-16.17-5.43-24C24.18,51.2,20.27,41,14.08,31.94A39.09,39.09,0,0,0,4.53,21.59c-.76-.53-.75-1-.44-1.74Q8,10.2,11.85.53c.22-.57.3-.64.88-.4Q22.36,4.1,32,8c.63.26,1.06.51,1,1.36-1.27,10.1,1.57,19.49,5.3,28.62,5.15,12.61,11.3,24.69,20,35.34,2,2.51,2.09,2.48,5.16,1.32,9.9-3.71,19.8-7.4,29.67-11.17,1.34-.51,1.93-.4,2.51,1q3,7.53,6.35,14.94c.64,1.44.43,2-1,2.63Q59.59,99.5,18.36,117c-2.93,1.25-5.91,2.4-8.77,3.79-1.58.76-2.12.33-2.72-1.18C5,114.91,2.93,110.24.92,105.56.69,105,.65,104.32,0,104ZM22.18,24.23c.52.05.53-.45.66-.76,1-2.46,2-5,3-7.41.4-.93,0-1.23-.75-1.53-2.42-.95-4.85-1.9-7.25-2.93-.79-.34-1.1-.17-1.39.59-.93,2.43-1.88,4.86-2.92,7.25-.43,1-.06,1.35.79,1.68C16.73,22,19.08,23,21.44,24Z"/><path class="cls-2" d="M230.27,207.07c-3.71-2.08-5.11-4.6-4.5-8.09.57-3.27,2.81-5.11,7-5.65,1.51-.19,3.05-.19,4.57-.36.61-.06,1.55.47,1.78-.48a2.75,2.75,0,0,0-.5-2.54,3,3,0,0,0-2.19-1A11.43,11.43,0,0,0,231,190c-1,.44-1.42.19-1.89-.72-1.63-3.15-1.58-3.41,1.87-4.32a17.29,17.29,0,0,1,9.25-.14c3,.86,4.85,2.88,4.95,6,.16,5,.08,10,.12,14.93,0,.63-.2.83-.87.91-2.89.31-3.27.13-4.42-2.41,0-.05-.09-.08-.3-.22a11.38,11.38,0,0,1-4.5,3Zm7.23-10.35a7.87,7.87,0,0,0-4,.79,2.83,2.83,0,0,0-1.43,3.06,2,2,0,0,0,1.6,1.89,4.23,4.23,0,0,0,5.51-4.08C239.29,196.88,238.77,196.44,237.5,196.72Z"/><path class="cls-2" d="M193.87,207.07c-3.11-1.46-4.7-3.89-4.41-7.35.32-3.87,2.69-5.94,7.22-6.4a46.62,46.62,0,0,1,5.14-.3c1.23,0,1.35-.47,1.14-1.49a2.83,2.83,0,0,0-3-2.57,11.55,11.55,0,0,0-5,1c-1.11.48-1.63.32-2.17-.78-1.51-3.1-1.54-3.1,1.75-4.11a18.41,18.41,0,0,1,8.5-.49c3.83.64,6,3.26,6.07,7.18.07,4.52,0,9.05,0,13.58,0,1.09-.33,1.31-1.39,1.4-2.13.18-3.78-.09-3.95-3.12a13,13,0,0,1-4.55,3.45Zm6.88-10.36a7.2,7.2,0,0,0-3.42.76,2.84,2.84,0,0,0-1.56,3,2.07,2.07,0,0,0,1.72,2,4.3,4.3,0,0,0,5.45-3.41C203.38,196.86,203.22,196.66,200.75,196.71Z"/><path class="cls-2" d="M103.83,207.07c-2.66-1.09-4.36-2.94-4.57-5.93-.33-4.6,2.07-7.26,7.13-7.82a35.83,35.83,0,0,1,5-.29c1.28,0,1.52-.42,1.35-1.56A2.63,2.63,0,0,0,110,189a10.79,10.79,0,0,0-5.39,1c-1.21.55-1.65.18-2.11-.88-1.4-3.19-2.16-2.68,1.68-4a16,16,0,0,1,9.78-.21,6.32,6.32,0,0,1,4.77,6.39c0,4.66,0,9.32,0,14,0,1-.16,1.44-1.32,1.43-2.68,0-2.68,0-4.24-2.79-1,1.49-2.64,2.18-4,3.13Zm7.28-10.36a7.85,7.85,0,0,0-4.37,1,2.89,2.89,0,0,0-1.19,2.8,2.05,2.05,0,0,0,1.36,1.89,4.31,4.31,0,0,0,5.8-3.68C112.85,197.31,112.8,196.24,111.11,196.71Z"/><path class="cls-3" d="M111.1,120.12a41.94,41.94,0,0,1,2.11,7.65,24.1,24.1,0,0,0,6.49,11.07c5.44,5.66,11,11.24,16.44,16.86a12.89,12.89,0,0,0,9.31,3.82l18.93.55,37.29,1.15,36,1.15,36.71,1.15,23.71.77a2.37,2.37,0,0,1,2,.52h-2.45q-127.29,0-254.56.07c-3.24,0-5.65-.58-7.35-3.46-.9-1.53-2.2-2.82-3.21-4.28a5.56,5.56,0,0,1-.88-5.43A11.48,11.48,0,0,1,37,150.24a4.34,4.34,0,0,0,3-1.4c2.49-2.4,3.27-2.26,4.94.71,1,1.86,2.42,3.35,4.71,3.45s3.15-1.58,4.08-3.23c1.52-2.68,2.79-2.92,5.38-1.07,1.05.75,2.17,1.72,3.42,1.48a6.09,6.09,0,0,1,6.31,2.06,2.24,2.24,0,0,0,3.47-.59,2.14,2.14,0,0,0-.92-3.23c-.65-.38-1.4-.58-2.09-.91-1.32-.63-3.2-.75-3.07-2.84s2.08-2,3.46-2.25a4.5,4.5,0,0,0,3.92-3.35c.78-2.49,2.07-3.06,4.57-2.35,1.16.33,2.29.79,3.45,1.13,2,.57,2.95.19,3.58-1.72a3.88,3.88,0,0,1,3.11-2.69A17.7,17.7,0,0,0,99.9,125a28.23,28.23,0,0,1,3.73-5.31C106.61,116.47,108.66,116.6,111.1,120.12Z"/><path class="cls-4" d="M111.1,120.12c-2.44-3.52-4.49-3.65-7.47-.46A28.23,28.23,0,0,0,99.9,125a17.7,17.7,0,0,1-11.53,8.47,3.88,3.88,0,0,0-3.11,2.69c-.63,1.91-1.59,2.29-3.58,1.72-1.16-.34-2.29-.8-3.45-1.13-2.5-.71-3.79-.14-4.57,2.35a4.5,4.5,0,0,1-3.92,3.35c-1.38.26-3.33.08-3.46,2.25s1.75,2.21,3.07,2.84c.69.33,1.44.53,2.09.91a2.14,2.14,0,0,1,.92,3.23,2.24,2.24,0,0,1-3.47.59,6.09,6.09,0,0,0-6.31-2.06c-1.25.24-2.37-.73-3.42-1.48-2.59-1.85-3.86-1.61-5.38,1.07-.93,1.65-1.86,3.32-4.08,3.23S46,151.41,45,149.55c-1.67-3-2.45-3.11-4.94-.71a4.34,4.34,0,0,1-3,1.4,11.48,11.48,0,0,0-5.45,1.47l-17.5-27.23c8.18-3.48,16.25-6.87,24.29-10.35,1.22-.52,1.42.27,1.79,1l12,23a5.6,5.6,0,0,0,1,1.41A37.14,37.14,0,0,0,52,132c-1.29-6.81-2.65-13.6-4-20.4a1.49,1.49,0,0,1,1.1-2q10.11-4.21,20.14-8.6c1.13-.49,1.51,0,2,.84q7.62,12.34,15.29,24.66c.36.58.79,1.13,1.18,1.69l.21.66c.45-.25.19-.58.1-.89-3-9.64-6-19.29-9-28.91-.48-1.53-.2-2.13,1.32-2.75,7.11-2.9,14.17-6,21.24-9,.75-.32,1.35-.84,1.7.57,2.57,10.5,5.22,21,7.84,31.45A3.84,3.84,0,0,1,111.1,120.12Z"/><path class="cls-2" d="M159.1,186.94c.43,6,.17,12,.29,18,0,1.33-.18,1.87-1.71,1.83-4-.1-4,0-4-4.09,0-7.53.07-15.06,0-22.58,0-1.78.52-2.19,2.14-2a37.47,37.47,0,0,0,5,0c1.08-.06,1.52.3,1.84,1.37,2,6.64,4.1,13.26,6.28,20.29,1.39-4.13,2.67-7.9,3.91-11.68.94-2.83,1.88-5.66,2.72-8.51.32-1.08.79-1.55,2-1.48,1.91.11,3.83.06,5.74,0,.81,0,1.12.21,1.12,1.07,0,8.87,0,17.73,0,26.6,0,.13.05.31,0,.37-1.43,1.35-3.17.3-4.74.61-.73.15-1-.2-1-1,.13-6.57-.25-13.14.26-19.69a1.51,1.51,0,0,0-.1-1.28L178.3,186q-3.18,9.75-6.36,19.51a1.44,1.44,0,0,1-1.57,1.2c-4.52.09-4.52.13-5.87-4.15q-2.49-8-5-15.93c-.11-.39.06-.88-.52-1.21Z"/><path class="cls-2" d="M97.77,184.85c-2.49,6.51-5,12.81-7.26,19.2-.73,2-1.6,2.85-3.85,2.71-3.49-.24-3.49-.07-4.8-3.49-2.3-6-4.61-12.07-7-18.42h5.84c.9,0,.87.79,1,1.35,1.53,4.49,3,9,4.6,13.62,1.52-4.56,3-9,4.46-13.44.37-1.14.79-1.68,2.07-1.57C94.41,185,96,184.85,97.77,184.85Z"/><path class="cls-5" d="M215,191.41c0-4.6,0-9.19,0-13.79,0-1.17.31-1.5,1.5-1.52,4.63,0,4.63-.09,4.63,4.45,0,8.17,0,16.34,0,24.52,0,1.35-.33,1.68-1.67,1.66-4.47-.06-4.47,0-4.47-4.4Z"/><path class="cls-5" d="M71.38,192.46c0,4.21,0,8.43,0,12.64,0,1.15-.15,1.64-1.51,1.63-4.73,0-4.73,0-4.73-4.72,0-7.41,0-14.81,0-22.22,0-1.49.44-1.79,1.83-1.77,4.43,0,4.43,0,4.43,4.48Z"/><path class="cls-2" d="M130.41,188.41c1.91-2.82,4.23-4.31,7.51-4,.86.09,1.34.22,1.15,1.2a10.74,10.74,0,0,0-.06,1.14c-.24,3.16-.24,3.16-3.31,3.45a4.87,4.87,0,0,0-4.73,5c-.08,3.38-.07,6.76,0,10.14,0,1.1-.33,1.36-1.4,1.38-4.79.08-4.79.12-4.79-4.64,0-5.22,0-10.45,0-15.68,0-1.22.29-1.77,1.57-1.56a3.63,3.63,0,0,0,1.14,0c1.53-.27,2.39.24,2.46,1.9A8.12,8.12,0,0,0,130.41,188.41Z"/><path class="cls-5" d="M256.9,188.41c2-2.78,4.26-4.32,7.56-4,.94.1,1.25.34,1.07,1.26a9.8,9.8,0,0,0,0,1.33c-.13,3-.13,3-3,3.19a5,5,0,0,0-5,5.3c0,3.31-.05,6.63,0,9.95,0,1-.3,1.25-1.29,1.28-4.84.13-4.84.16-4.84-4.76,0-5.23,0-10.46,0-15.69,0-1.21.34-1.47,1.49-1.45C255.93,184.86,255.93,184.8,256.9,188.41Z"/><path class="cls-5" d="M275.48,195.85c0,3.18,0,6.37,0,9.56,0,.92-.16,1.29-1.23,1.32-4.9.12-4.9.16-4.9-4.72,0-5.23,0-10.46,0-15.68,0-1.13.22-1.51,1.45-1.52,4.69,0,4.69-.06,4.69,4.54Z"/><path class="cls-2" d="M76.41,170c-3.41,2.07-5.34,6.49-10.33,6-.37,0-.89,0-1-.21-.35-.45.16-.79.41-1.13q1.75-2.26,3.53-4.51c.27-.34.5-.75,1-.75h6.21Z"/><path class="cls-2" d="M207.65,176a30.17,30.17,0,0,1-6.7,6.14c-1.23.86-2.72.3-4.08.33-.74,0-.43-.65-.18-1,1.3-1.72,2.65-3.4,4-5.1a.89.89,0,0,1,.79-.4C203.51,176.05,205.58,176,207.65,176Z"/><path class="cls-2" d="M272.46,182.17c-2.32,0-3.24-.84-3.23-3s1.09-3,3.29-3,3.33,1.05,3.31,3S274.68,182.18,272.46,182.17Z"/><path class="cls-6" d="M88,128c.09.31.35.64-.1.89l-.21-.66Z"/></g></g></svg>